<!-- A sprite that contains all SVG files -->
<svg xmlns="http://www.w3.org/2000/svg"
  xmlns:xlink="http://www.w3.org/1999/xlink">
  <defs>
    <symbol id="pencil"
      xmlns="http://www.w3.org/2000/svg">
      <path stroke="none" fill="currentColor" d="M4.52,74.74c-3.34,.11-4.88-1.55-4.45-4.31,.68-4.36,1.5-8.69,2.05-13.07,.3-2.38,1.75-3.81,3.3-5.35,14.43-14.41,28.82-28.86,43.24-43.29,2.41-2.41,4.88-4.77,7.34-7.14,2.14-2.06,3.97-2.12,6.05-.08,3.86,3.79,7.69,7.61,11.48,11.47,2.03,2.07,2,3.71-.11,5.82-17.35,17.37-34.71,34.72-52.12,52.03-.81,.81-2.08,1.39-3.22,1.61-4.65,.9-9.34,1.61-13.55,2.31Zm15.39-7.15c.53-.43,1.02-.76,1.42-1.16,11.94-11.93,23.87-23.87,35.84-35.77,1.27-1.26,1.15-2.09-.05-3.25-3.29-3.18-6.52-6.41-9.69-9.7-1.21-1.26-2.05-1.2-3.27,.02-11.91,11.96-23.86,23.89-35.83,35.79-1.03,1.02-1.25,1.76-.11,2.86,3.47,3.35,6.85,6.79,10.28,10.18,.4,.39,.9,.67,1.41,1.03ZM71.78,15.89c-.6-.73-.98-1.27-1.43-1.73-2.57-2.59-5.13-5.19-7.76-7.71-4.12-3.95-2.58-4.3-7.24,.12-1.23,1.17-1.32,2.03-.04,3.25,3.11,2.98,6.23,5.98,9.12,9.17,1.69,1.86,2.93,2.08,4.49,0,.82-1.1,1.87-2.02,2.87-3.09Zm-19.71-5.14c-4.12,2.51-4.21,3.03-1.35,5.9,1.11,1.11,2.22,2.23,3.33,3.34,2.22,2.2,4.44,4.39,6.78,6.69,.95-.88,1.82-1.45,2.34-2.25,.35-.53,.53-1.71,.21-2.05-3.73-3.96-7.57-7.82-11.3-11.63ZM15.73,69.57c-3.44-3.62-6.88-7.24-10.29-10.82-2.91,4.86,.9,7.32,3.71,10.24,2.35,2.44,4.66,.95,6.58,.58Zm-11.37-1.27c-.29,.15-.57,.29-.86,.44-.05,.9-.11,1.79-.19,3.13,1.23-.4,2.04-.67,3.09-1.01-.87-1.08-1.46-1.82-2.05-2.55Z"/>
    </symbol>
    <symbol id="compass"
      xmlns="http://www.w3.org/2000/svg">
      <path d="M61.08,54.86c.74,1.64,1.38,3.13,2.09,4.6,2.17,4.49,4.37,8.97,6.53,13.47,1.36,2.83,.87,3.79-2.27,4.5-6.41,1.46-12-1.18-14.92-7.11-2.17-4.4-4.34-8.8-6.34-13.27-.87-1.94-1.99-2.85-4.17-2.63-1.78,.18-3.6,.04-5.68,.04,0,1.79,.17,3.22-.07,4.58-.12,.68-1.01,1.22-1.55,1.83-.47-.58-.94-1.16-1.4-1.74-.04-.05,0-.16-.02-.24-.24-1.41-.22-3.88-.78-4.03-2.03-.52-4.26-.35-6.4-.2-.49,.04-1.03,.99-1.34,1.63-2.36,4.77-4.6,9.6-7,14.35-2.93,5.8-8.82,8.38-15.1,6.74-2.83-.74-3.24-1.62-1.98-4.26,2.87-5.99,5.75-11.97,8.85-18.42-1.65-.1-2.96,0-4.17-.31-.7-.18-1.23-1.01-1.84-1.55,.58-.47,1.16-.95,1.74-1.41,.05-.04,.17-.04,.24-.02,5.13,1.23,6.88-2.08,8.6-6,2.63-6.02,5.72-11.83,8.45-17.8,.53-1.15,.67-2.72,.38-3.96-1.56-6.65,1.63-13.11,7.96-15.32,1.85-.64,2.54-1.57,2.38-3.43-.1-1.07-.15-2.21,.1-3.23,.16-.64,.95-1.11,1.45-1.66,.49,.58,1.35,1.12,1.41,1.75,.19,1.8,.07,3.63,.07,5.49,1.25,.4,2.28,.69,3.29,1.05,6.08,2.14,9.52,8.9,7.92,15.14-.32,1.23-.24,2.84,.29,3.98,3.31,7.17,6.88,14.22,10.18,21.39,.91,1.98,2.08,2.7,4.2,2.62,1.32-.05,3.52-.81,3.7,1.32,.19,2.33-2.05,1.47-3.38,1.72-.39,.07-.76,.2-1.44,.39ZM25.41,28.96c-7.31,15.16-14.5,30.09-21.85,45.36,1.37,.16,2.33,.41,3.28,.35,4.17-.26,6.82-2.62,8.56-6.27,3.96-8.32,7.99-16.61,11.98-24.91,1.68-3.49,3.35-6.99,5.03-10.48-2.4-1.39-4.52-2.62-6.99-4.04Zm41.3,45c-7.22-14.98-14.45-29.97-21.7-45-2.54,1.47-4.72,2.73-7.01,4.06,2.51,5.19,4.96,10.27,7.42,15.36,3.32,6.89,6.73,13.73,9.93,20.67,1.88,4.08,7.4,6.98,11.36,4.92ZM35.28,29.62c5.25-.03,9.53-4.28,9.53-9.48,0-5.12-4.4-9.56-9.53-9.61-5.25-.05-9.63,4.39-9.59,9.72,.04,5.26,4.27,9.39,9.59,9.36Zm8.05,21.7c-2.79-5.79-5.3-10.99-8.12-16.85-2.83,5.9-5.32,11.08-8.02,16.69,1.5,.08,2.45,.12,3.41,.19,1.64,.11,2.66-.28,2.74-2.27,.04-.9,.96-1.77,1.48-2.65,.51,.9,1.01,1.81,1.53,2.7,.43,.74,.81,1.98,1.37,2.08,1.57,.29,3.23,.1,5.61,.1Z"/>
    </symbol>
    <symbol id="cap"
      xmlns="http://www.w3.org/2000/svg">
      <path stroke="none" fill="currentColor" d="M77.62,31.1c-3.01,1.98-6.08,3.89-8.98,6.02-.54,.4-.6,1.67-.62,2.54-.07,3.66-.11,7.33,0,10.99,.06,2.14-.71,3.57-2.52,4.74-7.19,4.66-14.35,9.37-21.42,14.19-2.37,1.62-4.36,1.77-6.8,.11-7.14-4.88-14.38-9.62-21.63-14.34-1.88-1.22-2.67-2.76-2.6-4.99,.11-3.74,.15-7.5-.05-11.23-.05-1.03-.8-2.33-1.63-2.94-2.89-2.1-5.98-3.92-8.96-5.9-3.13-2.08-3.21-4.4-.11-6.4C14.15,16.21,26.06,8.6,37.93,.91c1.83-1.18,3.46-1.23,5.31-.04,11.87,7.68,23.76,15.33,35.66,22.97,1.68,1.08,2.54,2.44,2.51,4.52-.08,6.32-.04,12.65-.04,18.98,0,.33,.12,.75-.03,.98-.44,.68-.99,1.29-1.5,1.93-.5-.63-1.41-1.25-1.43-1.89-.13-4.49-.08-8.99-.09-13.48,0-1.07,0-2.14,0-3.22l-.7-.56Zm.06-4.02c-.61-.53-.94-.89-1.34-1.15-11.39-7.34-22.76-14.71-34.22-21.94-.78-.49-2.46-.36-3.29,.17C27.65,11.22,16.55,18.4,5.44,25.56c-.6,.39-1.13,.88-1.97,1.54,.96,.69,1.65,1.25,2.39,1.73,10.79,6.87,21.63,13.68,32.35,20.65,1.86,1.21,3.07,1.09,4.84-.05,10.81-6.99,21.71-13.85,32.57-20.77,.66-.42,1.25-.96,2.05-1.58Zm-61.5,12.54c0,3.8-.15,7.01,.08,10.19,.08,1.13,.81,2.6,1.71,3.22,6.92,4.74,13.98,9.29,20.95,13.96,1.22,.82,2.14,.81,3.37-.01,6.97-4.68,13.99-9.27,20.98-13.92,.59-.39,1.43-1.01,1.45-1.54,.13-3.77,.07-7.55,.07-11.89-1.32,.78-2.15,1.24-2.96,1.75-6.08,3.89-12.2,7.74-18.22,11.73-2.06,1.37-3.74,1.52-5.88,.08-6.07-4.06-12.28-7.93-18.44-11.86-.8-.51-1.66-.92-3.11-1.71Z"/>
    </symbol>
    <symbol id="backpack"
      xmlns="http://www.w3.org/2000/svg">
      <path stroke="none" fill="currentColor" d="M35.08,79.79c-10.23,0-20.46,.01-30.7,0-3.33,0-4.33-.98-4.36-4.3-.04-5.99-.04-11.98,0-17.97,.04-4.88,1.9-8.94,5.92-11.77,1.5-1.06,1.92-2.28,1.92-3.99-.02-5.48-.38-10.99,1.49-16.3,2.24-6.33,6.02-11.49,11.82-14.94,1.85-1.1,2.62-2.36,2.34-4.41-.08-.57-.02-1.16,0-1.75C23.6,1.32,24.79,.06,27.75,.03c4.91-.04,9.82-.04,14.73,0,2.86,.03,4.08,1.28,4.2,4.1,.02,.5,.07,1.01,0,1.5-.38,2.44,.66,3.8,2.77,5.17,7.55,4.91,11.82,12.01,12.66,21.01,.32,3.47,.07,6.99,.35,10.47,.09,1.14,.78,2.57,1.67,3.25,4.02,3.06,5.98,7.1,6.08,12.02,.12,5.99,.07,11.98,.02,17.97-.03,3.23-1.14,4.26-4.44,4.26-10.23,.02-20.46,0-30.7,0ZM7.85,49.26l-.79-.24c-2.54,1.84-3.72,4.47-3.76,7.59-.09,5.99-.01,11.98-.08,17.98-.02,1.59,.51,2.24,2.16,2.21,3.74-.08,7.49-.1,11.23,0,1.8,.05,2.29-.66,2.26-2.35-.07-5.33-.05-10.65-.01-15.98,.02-3.3,1.22-4.47,4.55-4.48,7.74-.02,15.48-.02,23.22,0,3.48,0,4.67,1.18,4.68,4.59,.02,5.33,0,10.65,0,15.98,0,1.12-.06,2.21,1.59,2.2,4.16-.04,8.32,.04,12.48-.08,.54-.02,1.51-.93,1.51-1.42,.02-6.82,.08-13.65-.26-20.45-.11-2.31-1.36-4.51-4.09-5.95-.08,1.23-.18,2.1-.19,2.97-.02,4.58,.05,9.16-.05,13.73-.03,1.4,.78,3.76-1.59,3.72-2.1-.03-1.45-2.27-1.46-3.64-.08-10.73-.08-21.47-.13-32.2,0-.92-.21-1.84-.39-3.34-.94,1.04-1.47,1.54-1.9,2.12-3.78,5.06-8.81,8.32-14.85,9.94-1.71,.46-2.23,1.13-2.32,2.83-.13,2.6-1.57,3.52-4.72,3.48-2.84-.04-3.98-.91-4.09-3.51-.07-1.59-.59-2.28-2.22-2.68-6.26-1.54-11.43-4.85-15.35-10.03-.45-.6-1.02-1.11-1.54-1.66l-.83,.24c0,1.54,0,3.09,0,4.63,0,9.99,0,19.97,0,29.96,0,.67,.2,1.43-.06,1.97-.37,.78-1.08,1.39-1.65,2.08-.46-.69-1.29-1.37-1.32-2.07-.14-3.74-.08-7.49-.08-11.23,0-2.3,0-4.6,0-6.9Zm22.72-9.88c.28-2.82,1.2-4.73,4.43-4.59,3.53,.16,3.74,.17,5.22,4.31,6.06-.37,14.87-7.11,16.55-12.83,.27-.93,.09-2.19-.33-3.09-6.74-14.57-26.12-18.35-37.49-6.95-7.89,7.92-7.87,9.87,.63,18,2.96,2.83,6.65,4.56,10.99,5.15Zm4.36,37.33c3.66,0,7.32-.05,10.98,.02,1.71,.04,2.39-.62,2.37-2.34-.06-4.99-.04-9.98,0-14.97,.01-1.52-.49-2.33-2.14-2.33-7.32,.03-14.64,.03-21.96,0-1.58,0-2.25,.65-2.24,2.24,.04,5.07,.05,10.15,0,15.22-.01,1.62,.69,2.2,2.26,2.17,3.58-.06,7.15-.02,10.73-.02ZM27.24,7.44c.61-.09,1.24-.27,1.87-.28,3.95-.04,7.89-.09,11.84-.01,1.11,.02,2.38,.89,2.52-1.11,.11-1.61,.07-2.99-2.21-2.94-3.81,.09-7.62,0-11.44,.03-3.27,.01-3.73,.77-2.58,4.31Zm9.79,34.42l-.6-.28c.04-.66,.27-1.38,.07-1.96-.22-.64-.82-1.15-1.26-1.71-.45,.54-1.06,1.02-1.3,1.65-.22,.57-.18,1.34-.02,1.96,.34,1.31-1.17,3.52,1.39,3.65,.51,.03,1.14-2.15,1.71-3.31Z"/>
    </symbol>
    <symbol id="upDown"
      xmlns="http://www.w3.org/2000/svg">
      <path d="M35.14,39.99c-1.42-.21-2.84-.38-4.25-.65-1.02-.2-1.52,.07-1.96,1.09-.81,1.87-1.66,3.79-2.87,5.4-2.77,3.7-6.76,3.67-9.51-.03-1.12-1.5-2.02-3.23-2.68-4.99-.54-1.46-1.25-1.63-2.63-1.41-1.86,.3-3.78,.47-5.66,.37-4.3-.23-6.62-3.45-5.13-7.45,.91-2.44,2.49-4.67,3.97-6.86,.65-.96,.61-1.4-.02-2.34-1.49-2.24-3.09-4.52-4-7.01-1.39-3.79,.85-6.96,4.91-7.23,2.07-.14,4.19,.11,6.26,.39,1.17,.16,1.69-.08,2.19-1.2,.87-1.95,1.79-3.96,3.09-5.63,2.5-3.21,6.22-3.25,8.81-.13,1.25,1.51,2.17,3.35,3,5.15,.94,2.03,.81,1.94,3.11,1.63,1.97-.26,4.01-.4,5.97-.17,4.04,.48,5.92,3.86,4.28,7.9-.91,2.24-2.39,4.28-3.79,6.28-.65,.94-.73,1.48,.03,2.37,1.88,2.19,3.54,4.55,4.12,7.46,.76,3.8-1.21,6.44-5.09,6.84-.71,.07-1.44,.07-2.15,.11l-.02,.1ZM13.33,24.25c-.86,3.3,.45,5.3,3.33,6.87,5.79,3.15,3.56,3.12,9.32,.03,2.84-1.53,3.78-3.55,3.66-6.65-.18-4.69,.03-4.8-4-7.17-5.33-3.13-3.17-3-8.62-.06-2.9,1.56-4.75,3.51-3.68,6.98Zm-5.93,13.87c1.36-.22,2.74-.35,4.07-.7,.39-.1,.94-.84,.9-1.22-.43-3.68-.68-7.45-4.55-9.57-.87-.48-1.37-.78-1.99,.12-.96,1.39-2.05,2.7-2.84,4.19-2.38,4.51-.74,7.08,4.41,7.18ZM1.94,14.62c.36,2.85,2.26,5.37,4.42,7.73,.15,.16,.87,0,1.15-.22,1.13-.88,2.21-1.83,3.27-2.79,.28-.26,.58-.62,.65-.98,.37-1.96,.71-3.93,.94-5.91,.05-.39-.41-1.18-.7-1.21-2.12-.25-4.27-.57-6.38-.44-2.16,.13-3.3,1.53-3.33,3.82Zm33.3,23.5l.02-.13c.31,0,.62,0,.92,0,3.95-.14,5.53-2.42,3.9-6.05-.85-1.89-2.2-3.54-3.34-5.29-.54-.83-1.09-.68-1.74-.07-.93,.88-1.97,1.64-2.89,2.52-.42,.4-.83,.95-.94,1.5-.38,1.8-.6,3.63-.93,5.44-.15,.82,.1,1.29,.93,1.42,1.36,.22,2.72,.44,4.08,.66Zm0-27.63c-1.36,.22-2.74,.37-4.07,.7-.39,.1-.98,.74-.93,1.05,.53,3.76,.8,7.63,4.74,9.82,.88,.49,1.31,.58,1.86-.21,.93-1.35,1.99-2.62,2.77-4.05,2.49-4.54,.84-7.2-4.37-7.31Zm-20.12-.49c2.04,.87,3.86,1.67,5.71,2.42,.3,.12,.73,.13,1.02,.01,1.62-.64,3.24-1.3,4.8-2.06,.34-.17,.74-.96,.61-1.22-.98-1.96-1.87-4.01-3.2-5.73-1.59-2.05-3.63-1.97-5.42-.11-1.78,1.85-2.74,4.15-3.52,6.68Zm.11,28.56c.53,2.47,1.99,5.32,3.43,6.74,1.77,1.76,3.81,1.9,5.32-.05,1.36-1.75,2.27-3.85,3.3-5.83,.13-.25-.11-.97-.37-1.09-1.71-.8-3.47-1.52-5.23-2.22-.25-.1-.62-.04-.89,.07-1.84,.76-3.66,1.56-5.57,2.38Zm-1.15-6.86l-.48,.19c.27,1.36,.52,2.73,.84,4.08,.04,.18,.52,.45,.7,.39,1.2-.42,2.38-.91,3.93-1.53l-4.99-3.14Zm4.99-17.95c-1.48-.59-2.59-1.07-3.73-1.46-.24-.08-.83,.12-.86,.28-.33,1.37-.58,2.77-.85,4.16l.45,.17c1.56-.98,3.11-1.96,4.99-3.15Zm4.49,.02c1.99,1.21,3.55,2.17,5.11,3.12l.36-.24c-.25-1.33-.45-2.66-.77-3.97-.05-.2-.67-.46-.92-.38-1.14,.37-2.24,.86-3.78,1.47Zm.04,21.09c1.54,.6,2.7,1.08,3.88,1.49,.2,.07,.71-.13,.74-.28,.3-1.38,.53-2.77,.78-4.16l-.46-.15c-1.53,.96-3.06,1.93-4.94,3.11Zm8-8.38l.42,.3c.75-.84,2.07-1.67,2.08-2.53,.02-.78-1.38-1.59-2.15-2.38l-.35,.26v4.36Zm-20.94,.28l.38-.23v-4.47l-.38-.19c-.74,.8-2.09,1.62-2.05,2.39,.04,.86,1.32,1.67,2.06,2.51Z"/>
      <path d="M25.92,24.37c-.02,2.44-1.96,4.34-4.41,4.34-2.52,0-4.48-1.97-4.45-4.47,.03-2.43,1.98-4.35,4.42-4.36,2.5,0,4.46,1.98,4.44,4.49Zm-4.41,2.39c1.35,0,2.48-1.09,2.51-2.4,.04-1.36-1.14-2.53-2.55-2.52-1.34,0-2.48,1.1-2.52,2.4-.04,1.35,1.15,2.52,2.55,2.52Z"/>
    </symbol>
    <symbol id="books"
      xmlns="http://www.w3.org/2000/svg">
      <path stroke="none" fill="currentColor" d="M14.03,50.05c-2.94-4.64-2.92-8.82-.16-13.33-1.51-.11-2.62-.22-3.72-.25C4.33,36.31,.2,32.41,.08,26.92c-.12-5.59,3.99-9.79,9.85-10.08,1.13-.05,2.27-.1,2.85-.13-.24-3.23-.93-6.24-.57-9.13,.49-3.93,3.95-6.68,7.93-7.15,.82-.1,1.66-.13,2.49-.14C37.94,.19,53.24,.07,68.55,0c2.91-.01,5.82,.11,8.71,.38,.79,.07,1.5,.92,2.25,1.41-.8,.53-1.64,1.57-2.39,1.51-2.74-.21-3.23,1.1-3.08,3.43,.16,2.57,.09,5.16,.02,7.74-.05,1.68,.58,2.52,2.33,2.37,.33-.03,.74-.12,.98,.04,.76,.48,1.46,1.05,2.18,1.59-.75,.52-1.47,1.43-2.26,1.5-2.48,.24-4.99,.28-7.48,.2-1.79-.06-2.32,.63-2.26,2.33,.1,2.91,.1,5.83,0,8.74-.05,1.66,.61,2.17,2.2,2.12,2.41-.08,4.84-.11,7.23,.11,.88,.08,1.68,.93,2.52,1.42-.79,.52-1.59,1.52-2.36,1.49-2.45-.09-3.25,.88-3.11,3.24,.16,2.65,.11,5.33,.02,7.99-.07,1.82,.62,2.66,2.46,2.46,.33-.04,.74-.12,.98,.03,.71,.42,1.35,.94,2.02,1.42-.71,.52-1.38,1.4-2.14,1.5-2.47,.3-4.97,.4-7.46,.41-1.63,0-2.46,.44-2.38,2.26,.11,2.91,.09,5.83,0,8.74-.05,1.74,.63,2.43,2.35,2.29,.99-.08,2.04-.17,2.98,.08,.63,.17,1.09,.94,1.63,1.44-.56,.49-1.09,1.03-1.7,1.45-.23,.16-.65,.05-.98,.05-20.64,0-41.28,0-61.92-.02-4.03,0-7.08-1.91-8.82-5.49-1.78-3.67-1.36-7.32,1.19-10.55,2.04-2.59,4.84-3.69,8.12-3.61,.98,.03,1.96,0,3.63,0Zm22.04,3.51v-.48c-8.57,0-17.14-.05-25.7,.02-4.24,.04-7.14,2.88-7.17,6.74-.02,3.85,2.86,6.79,7.11,6.8,17.3,.02,34.61-.09,51.91-.13,1.43,0,2.11-.49,2.18-2.01,.12-2.75-.17-3.14-3.01-3.14-14.56,0-29.12,.02-43.68-.06-.81,0-1.62-.89-2.44-1.37,.77-.53,1.49-1.18,2.34-1.53,.57-.24,1.31-.05,1.98-.05,14.06,0,28.12-.03,42.18,.03,1.94,0,2.64-.6,2.65-2.56,0-2.02-1-2.28-2.66-2.27-8.57,.05-17.13,.02-25.7,.02Zm-.24-20.2v-.04c8.57,0,17.15-.04,25.72,.03,1.86,.01,2.94-.22,2.9-2.51-.03-2.18-.95-2.76-2.89-2.62-1.32,.1-2.66,.02-3.99,.02-12.98,0-25.97,.02-38.95-.04-1.25,0-3.31,.6-3.24-1.56,.06-2.05,2.07-1.46,3.36-1.51,2.66-.09,5.33-.03,7.99-.03,11.32,0,22.64,.02,33.96-.02,1.65,0,3.74,.8,3.78-2.38,.04-3.11-1.9-2.49-3.65-2.5-3.5-.03-6.99-.02-10.49-.03-13.23-.04-26.47-.06-39.7-.14-3.03-.02-5.42,.96-6.74,3.76-2.14,4.53,.89,9.46,5.98,9.53,8.65,.12,17.31,.03,25.97,.03Zm9.03-16.7v-.04c7.91,0,15.81,.03,23.72-.04,.77,0,1.98-.37,2.22-.91,1.06-2.4-.07-3.96-2.65-3.96-11.99,0-23.97,0-35.96,0-.75,0-1.57,.14-2.22-.12-.6-.24-1.35-.92-1.39-1.45-.03-.44,.79-1.18,1.38-1.38,.75-.26,1.64-.15,2.47-.15,12.07,0,24.14-.05,36.21,.03,2.24,.01,2.32-1.14,2.34-2.82,.02-1.59-.27-2.42-2.16-2.42-15.65,.05-31.3-.01-46.94,.03-4.25,.01-7.07,2.87-6.99,6.81,.07,3.88,2.78,6.41,7.01,6.42,7.66,.03,15.32,0,22.97,0Zm-.01,20.18v-.08c-7.74,0-15.49-.05-23.23,.02-4.07,.03-6.71,2.65-6.74,6.44-.03,3.79,2.61,6.69,6.56,6.71,15.82,.06,31.64-.01,47.46,0,1.5,0,1.96-.59,2.08-2.06,.2-2.41-.66-3.14-3.08-3.12-11.82,.11-23.65,.05-35.47,.05-.83,0-1.72,.13-2.48-.13-.58-.2-1.39-.92-1.38-1.38,.02-.52,.76-1.22,1.35-1.46,.65-.26,1.47-.11,2.22-.11,12.07,0,24.15-.04,36.22,.03,1.88,.01,2.63-.41,2.64-2.47,.02-2.14-.88-2.47-2.69-2.45-7.83,.06-15.65,.03-23.48,.03Z"/>
    </symbol>
    <symbol id="hexa"
      xmlns="http://www.w3.org/2000/svg">
      <polygon strokeLinejoin="round" strokeMiterlimit="10" points="27.5,21.904 15,28.809  2.5,21.904 2.5,8.095 15,1.19 27.5,8.095" />
    </symbol>
    <symbol id="calculator"
      xmlns="http://www.w3.org/2000/svg">
      <path stroke="none" fill="currentColor" d="M0,39.98c0-11.74,0-23.47,0-35.21C0,1.01,.99,0,4.71,0,21.44,0,38.18,0,54.91,0c3.45,0,4.51,1.02,4.51,4.45,.02,23.72,.02,47.45,0,71.17,0,3.36-.97,4.34-4.32,4.34-16.9,.02-33.8,.02-50.7,0-3.45,0-4.39-.99-4.39-4.53C0,63.62,0,51.8,0,39.98Zm56.26,.15c0-11.32-.05-22.64,.04-33.95,.02-2.27-.65-3.04-2.97-3.02-15.73,.08-31.46,.08-47.19,0-2.25-.01-3.04,.64-3.04,2.98,.07,22.55,.07,45.1,0,67.65,0,2.43,.77,3.11,3.14,3.1,15.65-.09,31.29-.09,46.94,0,2.35,.01,3.16-.6,3.14-3.06-.12-11.23-.05-22.47-.05-33.7Z"/>
      <path stroke="none" fill="currentColor" d="M29.59,72.3c-5.49,0-10.98,.02-16.47,0-3.24-.02-4.33-.96-4.35-4.08-.06-11.15-.05-22.3,0-33.45,.01-2.83,1.16-4.01,3.96-4.02,11.31-.06,22.63-.06,33.94,0,2.79,.02,3.96,1.22,3.97,4.03,.05,11.14,.06,22.28,0,33.42-.01,3.1-1.14,4.08-4.33,4.1-5.57,.03-11.15,0-16.72,0Zm4.66-33.08q0-5.17-4.86-5.17-5.19,0-5.19,5.12t5.01,5.03,5.04-4.98Zm-4.85,19.91c-6.1,.08-5.17-.72-5.19,5.09-.02,5.7-.67,4.89,4.84,4.94,5.19,.04,5.19,0,5.19-5.1q0-4.93-4.85-4.93Zm17.95-19.86c-.1-5.97,.76-5.19-4.83-5.21-5.79-.01-5.09-.66-5.13,4.96-.04,6.06-.66,5.15,5.1,5.15,5.55,0,4.77,.8,4.85-4.91Zm0,24.94c-.11-5.74,.83-5-4.96-5.08-.08,0-.17,0-.25,0-5.56,.02-4.7-.37-4.76,4.83-.06,6.17-.37,5.18,5.13,5.19,5.48,.02,4.77,.73,4.84-4.94ZM12.04,39.06c0,.5,0,.99,0,1.49q0,3.66,3.59,3.66c5.36,0,5.39,0,5.29-5.74-.09-4.72,.7-4.43-4.13-4.4-5.53,.04-4.67-.72-4.75,4.99Zm0,24.99c0,.75,.09,1.51-.02,2.24-.33,2.34,.69,3.01,2.95,2.92,6.73-.25,5.88,1.07,5.95-5.97,.04-4.11,0-4.11-4-4.11q-4.89,0-4.89,4.91Zm17.13-8.19c.91,0,1.83-.07,2.73,.01,1.86,.17,2.43-.65,2.38-2.46-.2-6.98,1.01-5.84-5.84-5.97-.33,0-.66,0-.99,0-3.23,.02-3.27,.02-3.24,3.35,.06,5.66-.82,5.01,4.96,5.07Zm13.15,0c.75,0,1.5-.07,2.24,.01,2.15,.24,2.91-.61,2.84-2.82-.21-6.38,.82-5.54-5.52-5.62-.33,0-.66,0-1,0-3.47,.02-3.5,.02-3.48,3.45,.03,5.4-.58,4.95,4.92,4.98Zm-25.66,0q4.28,0,4.28-4.1c0-4.98,.16-4.28-5.06-4.32-3.83-.03-3.87,0-3.83,3.74,.06,5.03-.82,4.64,4.61,4.68Z"/>
      <path stroke="none" fill="currentColor" d="M29.7,26.17c-5.49,0-10.97,.03-16.46,0-3.49-.03-4.44-.99-4.5-4.48-.04-2.74-.06-5.49,.02-8.23,.09-2.88,1.12-3.97,3.97-3.99,11.31-.05,22.61-.05,33.92,0,2.83,.01,3.92,1.15,4,3.97,.08,2.82,.06,5.65,0,8.48-.07,3.14-1.1,4.2-4.24,4.23-5.57,.05-11.14,.01-16.71,.02Zm.04-3.24c3.41,0,6.82,0,10.24,0,7.44,0,7.34,0,7.43-7.43,.03-2.44-.91-2.9-3.06-2.88-8.16,.09-16.31,0-24.47,.05-2.47,.01-5.99-.72-7.15,.57-1.33,1.47-.48,4.84-.72,7.37-.18,1.98,.77,2.37,2.5,2.35,5.08-.07,10.15-.03,15.23-.03Z"/>
    </symbol>

    <symbol id="apple">
      <path stroke="none" fill="currentColor" d="M133.35,213.23c-15.02,0-30.28-4.21-33.8-5.24-5.18,1.1-34.9,6.95-50.54-.35C31.13,199.29,8.66,152.74,.92,108.02c-5.02-29.01,11.32-53.83,28.29-67.38,15.74-12.57,33.64-17,46.74-11.55,3.23,1.34,5.99,2.65,8.42,3.81,6.72,3.2,11.57,5.5,20.46,5.71,.76,.02,1.47,.34,1.99,.89,.52,.55,.79,1.29,.76,2.04-.17,3.83-.47,7-.65,8.72,1.37,1.06,3.06,1.28,4.24,1.1,1.02-.15,1.8-.6,2.05-1.17,.3-.69,.46-2.98,.6-5,.09-1.28,.19-2.69,.33-4.17,.14-1.4,1.29-2.48,2.69-2.53,11.32-.44,22.87-4.62,22.98-4.66,.2-.07,.42-.13,.63-.15,.45-.05,45.18-4.92,57.55,35.57,8.24,26.98-.84,78.61-19.84,112.74-9.19,16.52-19.71,26.74-30.41,29.57-4.48,1.19-9.42,1.64-14.39,1.64Zm-33.69-10.96c.28,0,.56,.04,.83,.13,.28,.09,27.85,8.49,45.81,3.75,9.19-2.43,18.5-11.72,26.94-26.87,18.05-32.43,27.1-83.07,19.37-108.36h0c-4.59-15.03-14.56-24.92-29.62-29.39-10.4-3.09-19.83-2.43-21.59-2.27-1.95,.69-11.54,3.91-21.87,4.73-.04,.56-.08,1.1-.12,1.62-.21,3.05-.37,5.26-1.05,6.83-1.03,2.38-3.42,4.07-6.39,4.51-3.81,.56-7.7-.89-10.17-3.81-.51-.6-.74-1.4-.64-2.18,0-.03,.36-2.84,.62-6.86-8.32-.63-13.48-3.09-19.85-6.11-2.49-1.18-5.06-2.41-8.16-3.7-11.2-4.66-26.93-.54-41.06,10.75C17.73,57.01,1.86,80.44,6.47,107.06c8.03,46.39,30.33,88.66,44.92,95.47,15.07,7.03,47.33-.12,47.65-.19,.2-.05,.41-.07,.62-.07Z"/>
      <path stroke="none" fill="currentColor" d="M109.65,57.41c-3.39,0-6.33-1.69-8.1-4.64-.33-.54-.46-1.18-.38-1.81,0-.04,.54-4.19,.78-9.65,.58-13.39-1.13-22.86-4.58-25.33-4.37-3.13-3.55-6.46-2.99-7.75C96.98,2.22,111.58-.78,116.34,.17h0c3.64,.73,4.97,5.31,4.91,16.88-.05,8.67-.97,19.1-1.51,24.54-.14,1.45-.22,2.88-.29,4.14-.17,3.1-.29,5.34-1.22,6.98-1.59,2.77-5,4.66-8.49,4.69-.03,0-.06,0-.09,0Zm-2.76-6.84c.72,.81,1.63,1.2,2.81,1.21,1.48-.01,3.06-.81,3.66-1.86,.27-.56,.39-2.82,.48-4.48,.07-1.32,.15-2.82,.31-4.4,2.35-23.59,1.42-33.2,.48-35.44-4.32-.39-14.09,2.66-15.04,4.78,.1,.17,.4,.53,1.07,1.01,5.3,3.79,7.63,13.94,6.93,30.15-.18,4.06-.5,7.38-.69,9.02ZM115.24,5.69h0Z"/>
      <path stroke="none" fill="currentColor" d="M102.68,53.87c-3.47,0-12.56-.46-20.02-4.87-1.2-.71-1.6-2.26-.89-3.46,.71-1.2,2.26-1.6,3.46-.89,7.88,4.66,18.49,4.15,18.59,4.14,1.37-.08,2.58,.99,2.66,2.38,.08,1.39-.99,2.58-2.38,2.66-.09,0-.6,.03-1.43,.03Z"/>
      <path stroke="none" fill="currentColor" d="M187.23,89.18c-.05,0-.11,0-.16,0-1.39-.09-2.45-1.29-2.36-2.68,0-.11,.57-11.84-8.12-22.71-8.64-10.8-22.17-12.17-22.3-12.18-1.39-.13-2.41-1.36-2.29-2.74,.13-1.39,1.36-2.41,2.74-2.29,.64,.06,15.78,1.53,25.8,14.06,9.96,12.45,9.26,25.62,9.22,26.18-.08,1.34-1.2,2.37-2.52,2.37Z"/>
    </symbol>
  </defs>
</svg>